<svg width="1080" height="520" viewBox="0 0 1080 520" fill="none" xmlns="http://www.w3.org/2000/svg">
  <rect width="1080" height="520" rx="24" fill="#FFFEFE"/>
  <rect x="20" y="20" width="1040" height="480" rx="20" stroke="#D8EBDD" stroke-width="2"/>
  <text x="72" y="72" fill="#24332A" font-size="28" font-family="Arial, Helvetica, sans-serif" font-weight="700">GeoMind Weighted F1 Across Benchmarks</text>
  <path d="M110 430H980" stroke="#B2C8BB" stroke-width="3" stroke-linecap="round"/>
  <path d="M110 120V430" stroke="#B2C8BB" stroke-width="3" stroke-linecap="round"/>
  <path d="M110 368H980" stroke="#EEF4F0" stroke-width="2"/>
  <path d="M110 306H980" stroke="#EEF4F0" stroke-width="2"/>
  <path d="M110 244H980" stroke="#EEF4F0" stroke-width="2"/>
  <path d="M110 182H980" stroke="#EEF4F0" stroke-width="2"/>
  <text x="72" y="436" fill="#6B7F74" font-size="18" font-family="Arial, Helvetica, sans-serif">0.20</text>
  <text x="72" y="374" fill="#6B7F74" font-size="18" font-family="Arial, Helvetica, sans-serif">0.35</text>
  <text x="72" y="312" fill="#6B7F74" font-size="18" font-family="Arial, Helvetica, sans-serif">0.50</text>
  <text x="72" y="250" fill="#6B7F74" font-size="18" font-family="Arial, Helvetica, sans-serif">0.65</text>
  <text x="72" y="188" fill="#6B7F74" font-size="18" font-family="Arial, Helvetica, sans-serif">0.80</text>
  <rect x="168" y="133" width="38" height="297" rx="10" fill="#9CCFB0"/>
  <rect x="214" y="126" width="38" height="304" rx="10" fill="#2E8B57"/>
  <text x="160" y="460" fill="#4D6257" font-size="18" font-family="Arial, Helvetica, sans-serif">SEAM</text>
  <rect x="370" y="287" width="38" height="143" rx="10" fill="#9CCFB0"/>
  <rect x="416" y="267" width="38" height="163" rx="10" fill="#2E8B57"/>
  <text x="356" y="460" fill="#4D6257" font-size="18" font-family="Arial, Helvetica, sans-serif">Facies</text>
  <rect x="572" y="338" width="38" height="92" rx="10" fill="#9CCFB0"/>
  <rect x="618" y="330" width="38" height="100" rx="10" fill="#2E8B57"/>
  <text x="562" y="460" fill="#4D6257" font-size="18" font-family="Arial, Helvetica, sans-serif">FORCE</text>
  <rect x="774" y="295" width="38" height="135" rx="10" fill="#9CCFB0"/>
  <rect x="820" y="282" width="38" height="148" rx="10" fill="#2E8B57"/>
  <text x="748" y="460" fill="#4D6257" font-size="18" font-family="Arial, Helvetica, sans-serif">GeoLink</text>
  <rect x="706" y="126" width="246" height="94" rx="16" fill="#F3FBF6" stroke="#D8EBDD" stroke-width="2"/>
  <rect x="734" y="152" width="18" height="18" rx="5" fill="#9CCFB0"/>
  <text x="766" y="166" fill="#4E6658" font-size="18" font-family="Arial, Helvetica, sans-serif" font-weight="700">Best baseline</text>
  <rect x="734" y="184" width="18" height="18" rx="5" fill="#2E8B57"/>
  <text x="766" y="198" fill="#4E6658" font-size="18" font-family="Arial, Helvetica, sans-serif" font-weight="700">GeoMind</text>
</svg>
