<svg width="1080" height="560" viewBox="0 0 1080 560" fill="none" xmlns="http://www.w3.org/2000/svg">
  <rect width="1080" height="560" rx="24" fill="#FFFEFE"/>
  <rect x="20" y="20" width="1040" height="520" rx="20" stroke="#D8EBDD" stroke-width="2"/>
  <text x="74" y="72" fill="#24332A" font-size="28" font-family="Arial, Helvetica, sans-serif" font-weight="700">GeoMind Planner–Executor–Reflector Workflow</text>
  <rect x="72" y="120" width="220" height="280" rx="22" fill="#F2FBF5" stroke="#CFE6D8" stroke-width="2"/>
  <text x="140" y="164" fill="#1F6A40" font-size="28" font-family="Arial, Helvetica, sans-serif" font-weight="700">Planner</text>
  <rect x="104" y="196" width="156" height="44" rx="12" fill="#FFFFFF" stroke="#CFE6D8" stroke-width="2"/>
  <rect x="104" y="256" width="156" height="44" rx="12" fill="#FFFFFF" stroke="#CFE6D8" stroke-width="2"/>
  <rect x="104" y="316" width="156" height="44" rx="12" fill="#FFFFFF" stroke="#CFE6D8" stroke-width="2"/>
  <text x="125" y="224" fill="#506257" font-size="18" font-family="Arial, Helvetica, sans-serif">signal variability</text>
  <text x="130" y="284" fill="#506257" font-size="18" font-family="Arial, Helvetica, sans-serif">depth continuity</text>
  <text x="144" y="344" fill="#506257" font-size="18" font-family="Arial, Helvetica, sans-serif">tool routing</text>
  <rect x="364" y="92" width="352" height="336" rx="24" fill="#F7FCF8" stroke="#CFE6D8" stroke-width="2"/>
  <text x="482" y="136" fill="#1F6A40" font-size="28" font-family="Arial, Helvetica, sans-serif" font-weight="700">Executor</text>
  <rect x="392" y="170" width="296" height="68" rx="14" fill="#FFFFFF" stroke="#D7E9DD" stroke-width="2"/>
  <rect x="392" y="252" width="296" height="68" rx="14" fill="#FFFFFF" stroke="#D7E9DD" stroke-width="2"/>
  <rect x="392" y="334" width="296" height="68" rx="14" fill="#FFFFFF" stroke="#D7E9DD" stroke-width="2"/>
  <text x="428" y="198" fill="#2D5A40" font-size="20" font-family="Arial, Helvetica, sans-serif" font-weight="700">Perception</text>
  <text x="428" y="223" fill="#5A6E62" font-size="16" font-family="Arial, Helvetica, sans-serif">trend extraction · case retrieval</text>
  <text x="428" y="280" fill="#2D5A40" font-size="20" font-family="Arial, Helvetica, sans-serif" font-weight="700">Reasoning</text>
  <text x="428" y="305" fill="#5A6E62" font-size="16" font-family="Arial, Helvetica, sans-serif">neighbor vote · semantic reasoning</text>
  <text x="428" y="362" fill="#2D5A40" font-size="20" font-family="Arial, Helvetica, sans-serif" font-weight="700">Analysis</text>
  <text x="428" y="387" fill="#5A6E62" font-size="16" font-family="Arial, Helvetica, sans-serif">conflict scan · sequence validation</text>
  <rect x="788" y="120" width="220" height="280" rx="22" fill="#F2FBF5" stroke="#CFE6D8" stroke-width="2"/>
  <text x="846" y="164" fill="#1F6A40" font-size="28" font-family="Arial, Helvetica, sans-serif" font-weight="700">Reflector</text>
  <rect x="820" y="204" width="156" height="56" rx="12" fill="#FFFFFF" stroke="#CFE6D8" stroke-width="2"/>
  <rect x="820" y="280" width="156" height="56" rx="12" fill="#FFFFFF" stroke="#CFE6D8" stroke-width="2"/>
  <text x="853" y="237" fill="#506257" font-size="18" font-family="Arial, Helvetica, sans-serif">conflict fix</text>
  <text x="834" y="313" fill="#506257" font-size="18" font-family="Arial, Helvetica, sans-serif">final lithology</text>
  <path d="M292 260H348" stroke="#74B68E" stroke-width="6" stroke-linecap="round"/>
  <path d="M340 248L362 260L340 272" stroke="#74B68E" stroke-width="6" stroke-linecap="round" stroke-linejoin="round"/>
  <path d="M716 260H772" stroke="#74B68E" stroke-width="6" stroke-linecap="round"/>
  <path d="M764 248L786 260L764 272" stroke="#74B68E" stroke-width="6" stroke-linecap="round" stroke-linejoin="round"/>
  <rect x="236" y="452" width="608" height="54" rx="16" fill="#EAF7EE" stroke="#CFE6D8" stroke-width="2"/>
  <text x="276" y="486" fill="#2D5A40" font-size="20" font-family="Arial, Helvetica, sans-serif" font-weight="700">Process Rewards:</text>
  <text x="470" y="486" fill="#4F6458" font-size="19" font-family="Arial, Helvetica, sans-serif">Trend Quality · LLM Accuracy · Reflection Correction</text>
</svg>
